<svg width="24" height="24" viewBox="0 0 24 24" fill="none" xmlns="http://www.w3.org/2000/svg">
<defs>
<linearGradient id="metaGradient" x1="0%" y1="0%" x2="100%" y2="100%">
<stop offset="0%" style="stop-color:#0866FF"/>
<stop offset="100%" style="stop-color:#00C6FF"/>
</linearGradient>
</defs>
<rect width="24" height="24" rx="6" fill="url(#metaGradient)"/>
<path d="M8.5 17c-1.5 0-2.5-1-2.5-2.5 0-2 2-4.5 3.5-6 1.5 1.5 3.5 4 3.5 6 0 1.5-1 2.5-2.5 2.5s-2.5-1-2.5-2.5c0-1 1-2 2-2s2 1 2 2zm7.5 0c-1.5 0-2.5-1-2.5-2.5 0-2 2-4.5 3.5-6 1.5 1.5 3.5 4 3.5 6 0 1.5-1 2.5-2.5 2.5s-2.5-1-2.5-2.5c0-1 1-2 2-2s2 1 2 2z" fill="white"/>
</svg>